<svg xmlns="http://www.w3.org/2000/svg" viewBox="0 0 2240 1260">
  <path d="M2061.39,621.69c-26.32-36.32-74.66-74.27-122.32-66.68l-44.44,3.03c6.85-32.48,17.16-65.15,22.51-97.91,4.66-28.51,1.98-56.83-11.03-82.96-6.92-13.89-24.69-37.42-41.97-24.99-15.41,11.08-36.33,65.54-43.24,84.69-15.69,43.44-27.04,88.47-38.77,133.13-.77,1.19-2.03,1.36-3.24,1.76-11.31,3.7-27.35,5.23-39.64,8.34-12.83,3.25-44.88,11.71-53.21,21.26-7.38,8.46.05,23.53,4.48,32.3,11.1,21.96,29.37,40.91,50.15,53.79-25.28,21.19-52.6,40.34-83.48,52.46-1.11-.68-.4-3.08-.23-4.23,4.27-28.98,12.53-59.14,17.42-88.52,4.31-25.88,14.6-79.05,8.61-102.91-7.04-28.01-39.42-57.7-68.74-59.2-23.66-1.21-26.8,22.26-37.25,37.8l-36.74,3.25-81.51-1.05c11.94-27.39,31.8-51.65,45.78-77.65,20.23-37.62,6.77-59.05-25.48-82.06-17.71-12.63-50.31-30.47-71.21-18.59-26.95,15.32-55.92,76.09-68.24,104.67-6.94,16.1-12.44,38.45-23.79,51.17-24.24,27.16-70.83,43.64-106.51,46.43-6.8.53-13.85-1-20.48,1.01-1.13-1.27,12-25.28,13.82-28.65,13.08-24.24,28.2-47.41,41.33-71.61,12.13-22.34,29.24-46.02,17.31-71.61-11.6-24.89-61.44-68.31-89.95-65.98-16.32,1.33-32.91,28.26-40.91,41.07-37.98,60.75-66.99,143.53-88.83,212-16.81,52.7-23.68,107.36-28.48,162.41-9.11,9.7-19.8,18.53-30.34,26.63-3.73,2.87-33.42,25.1-35.88,22.59-.48-8.52,1.67-16.87,3.3-25.17,8.51-43.33,24.68-86.61,33.19-129.71,2.73-13.84,4.1-20.49-4.1-32.89-10.04-15.19-28.32-25.57-44.87-32.1-4.9-29.26-14.31-61.3-39.04-79.9-13.41-10.09-23.14-11.47-39.68-8.72-71.41,11.89-153.36,121.45-183.92,182.91-9.97,20.05-14.78,38.49-28,56.96-16.47,23.01-35.44,41.81-57.31,59.64-1.66-41.64,15.2-83.06,31.03-120.88,7.85-18.75,33.3-65.35,30.22-83.24-2.58-14.95-35.76-34.19-49.07-39.88-23.63-10.1-36.19-11.23-56.19,6.14-27.18,23.62-45.89,57.27-68.44,84.97,1.59-16.48,4.74-32.96,5.98-49.48.92-12.2,1.85-23.71-1.28-35.68-7.74-29.6-42.94-55.57-73.21-56.75-19.76-.77-60.2,30.4-74.98,43.94-31.21,28.58-56.9,64.34-79.45,99.95,30.21-6.51,60.93-11.94,91.97-11.97-7.35,33.12-12.61,66.87-16.85,100.57-3.22,25.54-11.59,77.02-4.42,100.07,7.33,23.56,44.58,67.78,71.68,64.08,13.27-1.81,27.79-21.32,35.39-31.57l42.16-66.27c-1.91,15.15-6.61,29.83-9.68,44.77-3.47,16.94-11.76,44.62-3.47,59.82,14.75,27.07,69.36,53.86,99.68,51.34,38.76-3.22,74.62-71.44,88.62-103.29,3.25-7.39,5.91-15.14,8.83-22.66,12.91,19.5,27.46,38.07,46.66,51.78,18.63,13.3,46.46,25.5,69.79,23.16,25.08-2.52,48.87-36.48,64.48-53.95.1,28.75,19.5,56.79,41.54,73.91,38.13,29.62,63.98,22.98,93.95-11.94,20.31-23.67,34.17-52.24,47.97-79.96,13.88,31.48,34.71,59.3,63.97,77.96,46.64,29.74,81.92,23.19,112.72-22.28,35.29-52.1,44.5-122.43,45.8-184.15l-2.57-29.49c15.2-7.88,30.07-16.66,43.03-27.92,2.42-.33,1.27.65,1.08,2.08-7.11,54.58-27.71,114.06-4.45,168.16,17.33,40.3,66.51,90.63,113.33,90.02,50.16-.65,75.4-80.32,85.4-119.94,10.49-41.56,16.42-84.43,19.19-127.23,21.91-8.01,41.36-21.87,58.86-37.08-11.41,63.1-25.8,127.99-26.99,192.36-.67,36.37,15.65,73.69,48.07,92.87,33.94,20.08,53.52-5.7,73.3-30.5,35.42-44.43,68.85-107.19,91.5-159.39.41-.94-.59-1.79,1.52-1.35l9.58,5.51c-5.6,26.74-11.69,53.47-16.54,80.36-8.46,46.86-17.72,95.06-5.19,142.14,3.38,12.69,14.55,42.01,31.35,26.41,11.13-10.33,26.52-47.5,32.81-62.64,23.3-56.04,39.55-114.87,57.65-172.72,53.49-4.62,108.42-12.09,160.25-26.19,13.78-3.75,54.14-14.93,60.98-26.98,5.1-8.99-7.18-25.73-12.6-33.21ZM763.94,799.88c14.63-60.87,50.91-116.8,102.95-151.9-10.72,62.08-47.86,120.47-102.95,151.9ZM1127.84,821.87c-7.06-31.27-4.4-65.68.13-97.29,4.5-31.38,12.33-62.28,22.83-92.1l4.01-8.47c20.07,65.99,23.48,144.61-26.97,197.86ZM1385.26,799.86c-1.83.05-4.37-17.91-4.54-20.43-3.31-49.23,10.97-120.12,34.01-163.95.48-.92.54-2.38,2.01-2.48,18.06,64.15,8.11,133.01-31.48,186.85Z" fill="#fff"/>
  <path d="M1658.93,480.83c28.64-3.72,50.84-59.55,44.45-84.89-6.61-26.23-47.2-54.11-73.95-49.52-27.91,4.79-36.39,66.96-31.45,88.93,5.28,23.49,36.46,48.66,60.95,45.48Z" fill="#fff"/>
</svg>